<svg width="500" height="500" viewBox="0 0 680 680" role="img" xmlns="http://www.w3.org/2000/svg">
  <title>bits&amp;bytes Logo</title>
  <desc>bits&amp;bytes logo — mixed sizing wordmark upper-left on black square, 9x9 fading green dot matrix</desc>

  <!-- Black square -->
  <rect x="10" y="10" width="500" height="500" rx="28" fill="#0d0d0d"/>

  <!-- DOT MATRIX 9x9 — fades diagonally from bottom-right to halfway upper-left -->
  <rect x="548" y="170" width="22" height="22" rx="4" fill="#1D9E75" opacity="0.125"/>

  <rect x="548" y="224" width="22" height="22" rx="4" fill="#1D9E75" opacity="0.25"/>
  <rect x="494" y="224" width="22" height="22" rx="4" fill="#1D9E75" opacity="0.125"/>

  <rect x="548" y="278" width="22" height="22" rx="4" fill="#1D9E75" opacity="0.375"/>
  <rect x="494" y="278" width="22" height="22" rx="4" fill="#1D9E75" opacity="0.25"/>
  <rect x="440" y="278" width="22" height="22" rx="4" fill="#1D9E75" opacity="0.125"/>

  <rect x="548" y="332" width="22" height="22" rx="4" fill="#1D9E75" opacity="0.50"/>
  <rect x="494" y="332" width="22" height="22" rx="4" fill="#1D9E75" opacity="0.375"/>
  <rect x="440" y="332" width="22" height="22" rx="4" fill="#1D9E75" opacity="0.25"/>
  <rect x="386" y="332" width="22" height="22" rx="4" fill="#1D9E75" opacity="0.125"/>

  <rect x="548" y="386" width="22" height="22" rx="4" fill="#1D9E75" opacity="0.625"/>
  <rect x="494" y="386" width="22" height="22" rx="4" fill="#1D9E75" opacity="0.50"/>
  <rect x="440" y="386" width="22" height="22" rx="4" fill="#1D9E75" opacity="0.375"/>
  <rect x="386" y="386" width="22" height="22" rx="4" fill="#1D9E75" opacity="0.25"/>
  <rect x="332" y="386" width="22" height="22" rx="4" fill="#1D9E75" opacity="0.125"/>

  <rect x="548" y="440" width="22" height="22" rx="4" fill="#1D9E75" opacity="0.75"/>
  <rect x="494" y="440" width="22" height="22" rx="4" fill="#1D9E75" opacity="0.625"/>
  <rect x="440" y="440" width="22" height="22" rx="4" fill="#1D9E75" opacity="0.50"/>
  <rect x="386" y="440" width="22" height="22" rx="4" fill="#1D9E75" opacity="0.375"/>
  <rect x="332" y="440" width="22" height="22" rx="4" fill="#1D9E75" opacity="0.25"/>
  <rect x="278" y="440" width="22" height="22" rx="4" fill="#1D9E75" opacity="0.125"/>

  <rect x="548" y="494" width="22" height="22" rx="4" fill="#1D9E75" opacity="0.875"/>
  <rect x="494" y="494" width="22" height="22" rx="4" fill="#1D9E75" opacity="0.75"/>
  <rect x="440" y="494" width="22" height="22" rx="4" fill="#1D9E75" opacity="0.625"/>
  <rect x="386" y="494" width="22" height="22" rx="4" fill="#1D9E75" opacity="0.50"/>
  <rect x="332" y="494" width="22" height="22" rx="4" fill="#1D9E75" opacity="0.375"/>
  <rect x="278" y="494" width="22" height="22" rx="4" fill="#1D9E75" opacity="0.25"/>
  <rect x="224" y="494" width="22" height="22" rx="4" fill="#1D9E75" opacity="0.125"/>

  <rect x="548" y="548" width="22" height="22" rx="4" fill="#1D9E75" opacity="1.0"/>
  <rect x="494" y="548" width="22" height="22" rx="4" fill="#1D9E75" opacity="0.875"/>
  <rect x="440" y="548" width="22" height="22" rx="4" fill="#1D9E75" opacity="0.75"/>
  <rect x="386" y="548" width="22" height="22" rx="4" fill="#1D9E75" opacity="0.625"/>
  <rect x="332" y="548" width="22" height="22" rx="4" fill="#1D9E75" opacity="0.50"/>
  <rect x="278" y="548" width="22" height="22" rx="4" fill="#1D9E75" opacity="0.375"/>
  <rect x="224" y="548" width="22" height="22" rx="4" fill="#1D9E75" opacity="0.25"/>
  <rect x="170" y="548" width="22" height="22" rx="4" fill="#1D9E75" opacity="0.125"/>

  <!-- WORDMARK -->
  <!-- "bits" lowercase at 112px -->
  <text x="124" y="240"
    font-family="system-ui,-apple-system,'Segoe UI',sans-serif"
    font-size="112" font-weight="700" letter-spacing="-3"
    fill="#ffffff">bits</text>

  <!-- "&" oversized at 148px in green -->
  <text x="124" y="352"
    font-family="system-ui,-apple-system,'Segoe UI',sans-serif"
    font-size="148" font-weight="700"
    fill="#1D9E75">&amp;</text>

  <!-- "bytes" lowercase at 112px, spaced after "&" -->
  <text x="246" y="352"
    font-family="system-ui,-apple-system,'Segoe UI',sans-serif"
    font-size="112" font-weight="700" letter-spacing="-3"
    fill="#ffffff">bytes</text>

</svg>
